# xmcd
# 
# Track frame offsets:
#     150
#     14529
#     31613
#     49166
#     62666
#     77193
#     94015
#     108698
#     133218
#     148489
#     160017
#     173424
#     185883
#     217205
#     237283
#     256941
#     276689
#     289562
#     306736
# 
# Disc length: 4380
# 
# Revision: 3
# Processed by: cddbd v1.5.2PL0 Copyright (c) Steve Scherf et al.
# Submitted via: fre:ac v1.0.27
# 
DISCID=29111a13
DTITLE=Various Artist - Motown: The Complete No. 1's
DYEAR=2008
DGENRE=R&B
TTITLE0=The Jackson 5 - Mama's Pearl
TTITLE1=The Temptations - Just My Imagination ( Running Away With Me)
TTITLE2=Marvin Gaye - What's Going On
TTITLE3=The Jackson 5 - Never Can Say Goodbye
TTITLE4=Marvin Gaye - Mercy Mercy Me (The Ecology)
TTITLE5=Diana Ross - I'm Still Waiting
TTITLE6=The Undisputed Truth - Smiling Faces Sometimes
TTITLE7=Marvin Gaye - Inner City Blues ( Make Me Wanna Holler)
TTITLE8=Michael Jackson - Got To Be There
TTITLE9=Michael Jackson - Rockin' Robin
TTITLE10=Michael Jackson - I Wanna Be Where You Are
TTITLE11=Michael Jackson - Ben
TTITLE12=The Temptations - Papa Was A Rollin' Stone
TTITLE13=Stevie Wonder - Superstition
TTITLE14=Gladys Knight and The Pips - Neither One Of Us ( Wants To Be The First To Say Goodbye)
TTITLE15=The Temptations - Masterpiece
TTITLE16=Stevie Wonder - You Are The Sunshine Of My Life
TTITLE17=Diana Ross - Touch Me In The Morning
TTITLE18=Marvin Gaye - Let's Get It On
EXTD=
EXTT0=
EXTT1=
EXTT2=
EXTT3=
EXTT4=
EXTT5=
EXTT6=
EXTT7=
EXTT8=
EXTT9=
EXTT10=
EXTT11=
EXTT12=
EXTT13=
EXTT14=
EXTT15=
EXTT16=
EXTT17=
EXTT18=
PLAYORDER=
